<svg width="35" height="44" viewBox="0 0 35 44" fill="none" xmlns="http://www.w3.org/2000/svg">
<path d="M20.685 17.6001L32.795 5.42085C33.635 4.57605 33.635 3.20325 32.795 2.35845C31.955 1.51365 30.59 1.51365 29.75 2.35845L17.64 14.5377L5.52998 2.39365C4.68998 1.54885 3.32498 1.54885 2.48498 2.39365C1.64498 3.23845 1.64498 4.61125 2.48498 5.45605L14.595 17.6001L2.51998 29.7793C1.67998 30.6241 1.67998 31.9969 2.51998 32.8417C3.35998 33.6865 4.72498 33.6865 5.56498 32.8417L17.675 20.6625L29.785 32.8417C30.625 33.6865 31.99 33.6865 32.83 32.8417C33.67 31.9969 33.67 30.6241 32.83 29.7793L20.685 17.6001Z" />
</svg>
