<svg width="347" height="267" viewBox="0 0 347 267" fill="none" xmlns="http://www.w3.org/2000/svg">
<path d="M79.8999 184.78L106.766 142.471L46.5987 104.158L15.5269 153.09L65.2926 184.78H79.8999Z" fill="#F0F0F0"/>
<path d="M117.971 197.978H51.4235V184.563H117.971V197.978ZM52.2877 197.113H117.107V185.429H52.2877V197.113Z" fill="#3F3D56"/>
<path d="M109.761 195.598C112.148 195.598 114.082 193.661 114.082 191.271C114.082 188.881 112.148 186.943 109.761 186.943C107.374 186.943 105.44 188.881 105.44 191.271C105.44 193.661 107.374 195.598 109.761 195.598Z" fill="#2B303A"/>
<path d="M97.6613 195.598C100.048 195.598 101.983 193.661 101.983 191.271C101.983 188.881 100.048 186.943 97.6613 186.943C95.2747 186.943 93.34 188.881 93.34 191.271C93.34 193.661 95.2747 195.598 97.6613 195.598Z" fill="#2B303A"/>
<path d="M85.5617 195.598C87.9482 195.598 89.8829 193.661 89.8829 191.271C89.8829 188.881 87.9482 186.943 85.5617 186.943C83.1751 186.943 81.2404 188.881 81.2404 191.271C81.2404 193.661 83.1751 195.598 85.5617 195.598Z" fill="#2B303A"/>
<path d="M73.462 195.598C75.8486 195.598 77.7833 193.661 77.7833 191.271C77.7833 188.881 75.8486 186.943 73.462 186.943C71.0755 186.943 69.1407 188.881 69.1407 191.271C69.1407 193.661 71.0755 195.598 73.462 195.598Z" fill="#2B303A"/>
<path d="M61.3624 195.598C63.749 195.598 65.6837 193.661 65.6837 191.271C65.6837 188.881 63.749 186.943 61.3624 186.943C58.9758 186.943 57.0411 188.881 57.0411 191.271C57.0411 193.661 58.9758 195.598 61.3624 195.598Z" fill="#2B303A"/>
<path d="M197.051 48.8995V16.0113H213.472V0H133.096V80.4895H201.805V72.6199C201.805 71.1529 202.093 69.7002 202.654 68.3449C203.214 66.9896 204.036 65.7581 205.072 64.7208C206.108 63.6835 207.337 62.8607 208.691 62.2993C210.044 61.7379 211.495 61.449 212.96 61.449H213.472V48.8995H197.051Z" fill="#F0F0F0"/>
<path d="M286.07 207.715H232.486V218.966H286.07V207.715Z" fill="#2B303A"/>
<path d="M297.737 152.324H219.09V162.71H297.737V152.324Z" fill="#F0F0F0"/>
<path d="M336.197 266.135H0V267H336.197V266.135Z" fill="#3F3D56"/>
<path d="M311.213 267H212.96C209.888 266.996 206.942 265.773 204.77 263.597C202.598 261.422 201.376 258.473 201.372 255.396V72.6198C201.376 69.5434 202.598 66.594 204.77 64.4187C206.942 62.2433 209.888 61.0197 212.96 61.0162H311.213C314.285 61.0197 317.231 62.2433 319.403 64.4187C321.575 66.594 322.797 69.5434 322.801 72.6198V255.396C322.797 258.473 321.575 261.422 319.403 263.597C317.231 265.773 314.285 266.996 311.213 267ZM212.96 61.8817C210.117 61.8849 207.391 63.0173 205.381 65.0304C203.371 67.0435 202.24 69.7729 202.237 72.6198V255.396C202.24 258.243 203.371 260.973 205.381 262.986C207.391 264.999 210.117 266.131 212.96 266.134H311.213C314.056 266.131 316.782 264.999 318.792 262.986C320.802 260.973 321.933 258.243 321.936 255.396V72.6198C321.933 69.7729 320.802 67.0435 318.792 65.0304C316.782 63.0173 314.056 61.8849 311.213 61.8817H212.96Z" fill="#3F3D56"/>
<path d="M250.419 69.671C249.906 69.671 249.405 69.5187 248.978 69.2334C248.552 68.9481 248.22 68.5426 248.024 68.0682C247.827 67.5938 247.776 67.0717 247.876 66.568C247.976 66.0644 248.223 65.6017 248.586 65.2386C248.948 64.8755 249.41 64.6282 249.913 64.528C250.416 64.4279 250.937 64.4793 251.411 64.6758C251.885 64.8723 252.29 65.2051 252.575 65.6321C252.86 66.0591 253.012 66.5611 253.012 67.0746C253.011 67.763 252.738 68.4229 252.251 68.9097C251.765 69.3965 251.106 69.6703 250.419 69.671ZM250.419 65.3436C250.077 65.3436 249.743 65.4452 249.459 65.6354C249.174 65.8256 248.953 66.0959 248.822 66.4122C248.691 66.7285 248.657 67.0765 248.724 67.4123C248.79 67.7481 248.955 68.0565 249.197 68.2986C249.438 68.5406 249.746 68.7055 250.082 68.7723C250.417 68.8391 250.765 68.8048 251.08 68.6738C251.396 68.5428 251.666 68.3209 251.856 68.0363C252.046 67.7516 252.147 67.4169 252.147 67.0746C252.147 66.6157 251.965 66.1757 251.641 65.8512C251.317 65.5266 250.877 65.3441 250.419 65.3436Z" fill="#3F3D56"/>
<path d="M275.915 66.6418H256.901V67.5073H275.915V66.6418Z" fill="#3F3D56"/>
<path d="M315.023 73.5656V108.185C305.854 108.184 297.061 104.537 290.578 98.0446C284.095 91.5523 280.453 82.7471 280.452 73.5656H315.023Z" fill="#2B303A"/>
<path d="M315.454 255.316H208.719V73.1329H315.454V255.316ZM209.583 254.451H314.59V73.9984H209.583V254.451Z" fill="#3F3D56"/>
<path opacity="0.1" d="M289.959 106.021C296.403 106.021 301.626 100.79 301.626 94.3371C301.626 87.8843 296.403 82.6532 289.959 82.6532C283.515 82.6532 278.292 87.8843 278.292 94.3371C278.292 100.79 283.515 106.021 289.959 106.021Z" fill="black"/>
<path d="M288.23 107.319C294.674 107.319 299.898 102.088 299.898 95.6353C299.898 89.1824 294.674 83.9514 288.23 83.9514C281.787 83.9514 276.563 89.1824 276.563 95.6353C276.563 102.088 281.787 107.319 288.23 107.319Z" fill="#2B303A"/>
<path d="M229.893 80.4895H213.472V86.5478H229.893V80.4895Z" fill="#3F3D56"/>
<path d="M238.968 138.044H222.547V144.102H238.968V138.044Z" fill="#3F3D56"/>
<path d="M302.058 160.546H222.547V149.295H302.058V160.546ZM223.411 159.681H301.194V150.16H223.411V159.681Z" fill="#3F3D56"/>
<path d="M297.737 185.212H219.09V195.598H297.737V185.212Z" fill="#F0F0F0"/>
<path d="M238.968 170.932H222.547V176.99H238.968V170.932Z" fill="#3F3D56"/>
<path d="M302.058 193.434H222.547V182.183H302.058V193.434ZM223.411 192.569H301.194V183.049H223.411V192.569Z" fill="#3F3D56"/>
<path d="M289.527 216.37H235.078V204.253H289.527V216.37ZM235.943 215.504H288.662V205.118H235.943V215.504Z" fill="#3F3D56"/>
<path d="M299.898 156.219C299.898 157.11 299.623 157.979 299.112 158.708C298.6 159.436 297.876 159.989 297.039 160.291C296.202 160.592 295.292 160.628 294.434 160.392C293.576 160.157 292.812 159.662 292.245 158.975L292.241 158.971C291.828 158.469 291.533 157.881 291.378 157.249C291.223 156.617 291.213 155.959 291.347 155.323C291.482 154.687 291.758 154.089 292.154 153.574C292.551 153.059 293.059 152.641 293.64 152.35C294.22 152.058 294.859 151.902 295.508 151.892C296.158 151.882 296.801 152.019 297.39 152.292C297.979 152.565 298.5 152.968 298.912 153.47C299.325 153.972 299.619 154.561 299.773 155.193C299.773 155.194 299.773 155.194 299.773 155.195C299.773 155.195 299.773 155.196 299.774 155.196C299.774 155.197 299.775 155.197 299.775 155.197C299.776 155.197 299.776 155.198 299.777 155.198C299.857 155.532 299.897 155.875 299.898 156.219Z" fill="#2B303A"/>
<path opacity="0.1" d="M299.898 156.219C299.898 157.11 299.623 157.979 299.112 158.708C298.6 159.436 297.876 159.989 297.039 160.291C296.202 160.592 295.292 160.628 294.434 160.392C293.576 160.157 292.812 159.662 292.245 158.975L292.241 158.971C292.161 158.636 292.12 158.294 292.12 157.95C292.12 157.059 292.394 156.19 292.906 155.461C293.418 154.732 294.142 154.179 294.979 153.878C295.816 153.576 296.725 153.541 297.583 153.776C298.441 154.012 299.206 154.506 299.773 155.193C299.773 155.194 299.773 155.194 299.773 155.195C299.773 155.195 299.774 155.196 299.774 155.196C299.774 155.197 299.775 155.197 299.775 155.197C299.776 155.197 299.776 155.198 299.777 155.198C299.857 155.532 299.897 155.875 299.898 156.219Z" fill="black"/>
<path d="M297.305 163.143C299.692 163.143 301.626 161.205 301.626 158.815C301.626 156.425 299.692 154.488 297.305 154.488C294.919 154.488 292.984 156.425 292.984 158.815C292.984 161.205 294.919 163.143 297.305 163.143Z" fill="#2B303A"/>
<path d="M299.898 189.107C299.898 189.998 299.623 190.867 299.112 191.596C298.6 192.325 297.876 192.877 297.039 193.179C296.202 193.48 295.292 193.516 294.434 193.281C293.576 193.045 292.812 192.55 292.245 191.864L292.241 191.859C291.828 191.357 291.533 190.769 291.378 190.137C291.223 189.506 291.213 188.847 291.347 188.211C291.482 187.575 291.758 186.977 292.154 186.462C292.551 185.948 293.059 185.529 293.64 185.238C294.22 184.947 294.859 184.79 295.508 184.78C296.158 184.77 296.801 184.907 297.39 185.18C297.979 185.453 298.5 185.856 298.912 186.358C299.325 186.861 299.619 187.45 299.773 188.081C299.773 188.082 299.773 188.083 299.773 188.083C299.773 188.084 299.773 188.084 299.774 188.084C299.774 188.085 299.775 188.085 299.775 188.085C299.776 188.086 299.776 188.086 299.777 188.086C299.857 188.42 299.897 188.763 299.898 189.107Z" fill="#2B303A"/>
<path opacity="0.1" d="M299.898 189.107C299.898 189.998 299.623 190.867 299.112 191.596C298.6 192.325 297.876 192.877 297.039 193.179C296.202 193.48 295.292 193.516 294.434 193.281C293.576 193.045 292.812 192.55 292.245 191.864L292.241 191.859C292.161 191.525 292.12 191.182 292.12 190.838C292.12 189.947 292.394 189.078 292.906 188.349C293.418 187.62 294.142 187.068 294.979 186.766C295.816 186.464 296.725 186.429 297.583 186.664C298.441 186.9 299.206 187.395 299.773 188.081C299.773 188.082 299.773 188.083 299.773 188.083C299.773 188.084 299.774 188.084 299.774 188.084C299.774 188.085 299.775 188.085 299.775 188.085C299.776 188.086 299.776 188.086 299.777 188.086C299.857 188.42 299.897 188.763 299.898 189.107Z" fill="black"/>
<path d="M297.305 196.031C299.692 196.031 301.626 194.093 301.626 191.703C301.626 189.313 299.692 187.376 297.305 187.376C294.919 187.376 292.984 189.313 292.984 191.703C292.984 194.093 294.919 196.031 297.305 196.031Z" fill="#2B303A"/>
<path d="M224.707 20.7715H202.237V43.2739H224.707V20.7715Z" fill="#F0F0F0"/>
<path d="M289.959 37.2156C288.933 37.2156 287.931 36.911 287.078 36.3404C286.225 35.7698 285.561 34.9588 285.168 34.0099C284.776 33.0611 284.673 32.0169 284.873 31.0096C285.073 30.0023 285.567 29.077 286.292 28.3508C287.017 27.6246 287.941 27.13 288.947 26.9296C289.953 26.7292 290.996 26.8321 291.943 27.2251C292.891 27.6182 293.701 28.2837 294.271 29.1377C294.84 29.9917 295.145 30.9957 295.145 32.0227C295.143 33.3995 294.596 34.7194 293.624 35.6929C292.652 36.6664 291.334 37.214 289.959 37.2156ZM289.959 27.6953C289.104 27.6953 288.269 27.9491 287.558 28.4246C286.848 28.9001 286.294 29.576 285.967 30.3667C285.64 31.1574 285.554 32.0275 285.721 32.8669C285.887 33.7064 286.299 34.4774 286.903 35.0826C287.508 35.6878 288.278 36.1 289.116 36.2669C289.954 36.4339 290.823 36.3482 291.613 36.0207C292.402 35.6932 293.077 35.1385 293.552 34.4269C294.027 33.7152 294.28 32.8786 294.28 32.0227C294.279 30.8754 293.823 29.7755 293.013 28.9642C292.203 28.153 291.105 27.6966 289.959 27.6953Z" fill="#3F3D56"/>
<path d="M175.877 109.483H164.641V98.2318H175.877V109.483ZM165.506 108.618H175.012V99.0972H165.506V108.618Z" fill="#3F3D56"/>
<path d="M347 193.434H335.765V182.183H347V193.434ZM336.629 192.569H346.136V183.049H336.629V192.569Z" fill="#3F3D56"/>
<path d="M125.319 117.993L127.247 119.033L133.807 122.574L144.399 128.289L150.571 116.821C151.153 115.743 151.516 114.561 151.641 113.343C151.765 112.125 151.649 110.894 151.298 109.72C150.947 108.547 150.369 107.455 149.595 106.506C148.822 105.557 147.87 104.77 146.793 104.189C144.491 102.945 141.854 102.464 139.261 102.816C136.669 103.168 134.255 104.335 132.368 106.149L132.365 106.153C131.436 107.046 130.652 108.079 130.042 109.214L125.319 117.993Z" fill="#2F2E41"/>
<path d="M154.227 234.95L152.933 249.204L148.08 249.852L144.845 233.654L154.227 234.95Z" fill="#FFB8B8"/>
<path d="M146.787 249.852C146.787 249.852 152.933 246.612 154.227 249.204C154.227 249.204 153.257 256.979 157.139 257.951C161.021 258.923 162.638 265.726 157.139 266.374C151.639 267.022 148.081 265.078 146.14 265.078C144.199 265.078 146.14 258.275 146.14 258.275L146.787 249.852Z" fill="#2F2E41"/>
<path d="M115.083 234.95L116.377 249.204L121.23 249.852L124.465 233.654L115.083 234.95Z" fill="#FFB8B8"/>
<path d="M122.524 249.852C122.524 249.852 116.377 246.612 115.083 249.204C115.083 249.204 116.054 256.979 112.172 257.951C108.29 258.923 106.672 265.726 112.172 266.374C117.671 267.022 121.23 265.078 123.171 265.078C125.112 265.078 123.171 258.275 123.171 258.275L122.524 249.852Z" fill="#2F2E41"/>
<path d="M141.61 120.592C146.256 120.592 150.021 116.82 150.021 112.169C150.021 107.517 146.256 103.746 141.61 103.746C136.965 103.746 133.199 107.517 133.199 112.169C133.199 116.82 136.965 120.592 141.61 120.592Z" fill="#FFB8B8"/>
<path d="M114.76 128.691L121.553 139.381L129.641 138.733L142.904 139.705C142.904 139.705 144.156 137.198 145.179 134.758C145.738 133.54 146.169 132.267 146.463 130.958C146.786 128.691 142.257 126.423 142.257 126.423C142.257 126.423 142.079 126.391 141.782 126.319C141.387 126.225 140.779 126.07 140.113 125.843C138.608 125.331 136.8 124.463 136.434 123.183C135.787 120.916 140.64 117.676 140.64 117.676L134.817 112.169C134.817 112.169 129.644 119.364 123.362 121.003C122.997 121.099 122.628 121.175 122.255 121.23C122.236 121.233 122.22 121.236 122.2 121.24C115.407 122.211 114.76 128.691 114.76 128.691Z" fill="#FFB8B8"/>
<path d="M118.318 125.775L114.759 128.691C114.759 128.691 111.848 142.621 112.818 146.508C113.789 150.396 112.495 153.96 112.495 154.607C112.495 155.255 109.583 179.553 109.583 179.553C109.583 179.553 103.76 192.511 109.907 191.215C116.054 189.919 113.789 176.961 113.789 176.961L121.23 154.284V135.17L118.318 125.775Z" fill="#FFB8B8"/>
<path d="M143.875 128.367L146.463 130.31L147.757 157.523L157.462 180.848C157.462 180.848 164.579 192.187 160.05 192.511C155.521 192.835 152.609 180.848 152.609 180.848L143.875 158.495L142.581 136.79L143.875 128.367Z" fill="#FFB8B8"/>
<path d="M127.7 130.31C127.7 130.31 134.17 134.846 144.522 133.226C144.522 133.226 147.434 139.057 145.816 142.297C144.198 145.537 147.757 153.312 148.404 154.284C149.051 155.255 156.492 175.341 159.08 197.046C161.668 218.752 168.785 233.654 162.638 235.598C156.492 237.541 143.875 239.809 142.581 237.865C141.287 235.922 139.346 187.652 139.346 187.652L135.787 206.117C135.787 206.117 140.64 237.542 137.081 238.189C133.523 238.837 111.201 236.894 111.848 233.006C112.495 229.119 118.965 208.709 118.965 208.709C118.965 208.709 118.642 167.89 125.112 160.115C125.112 160.115 127.7 155.903 124.141 150.396C120.583 144.889 120.906 136.142 120.906 136.142C120.906 136.142 123.494 136.142 127.7 130.31Z" fill="#2F2E41"/>
<path d="M122.255 121.23L127.7 133.226L128.994 132.578L123.361 121.003L122.255 121.23Z" fill="#2F2E41"/>
<path d="M140.113 125.843L144.198 134.846L145.179 134.758L144.845 133.226L141.782 126.319C141.387 126.225 140.779 126.07 140.113 125.843Z" fill="#2F2E41"/>
<path d="M127.247 119.033C127.558 120.036 128.157 120.923 128.97 121.586C129.783 122.249 130.773 122.656 131.816 122.758C132.859 122.86 133.909 122.651 134.834 122.158C135.759 121.665 136.518 120.909 137.017 119.986C132.924 114.627 136.434 111.262 143.082 108.715C143.583 107.784 143.796 106.726 143.694 105.673C143.592 104.621 143.18 103.623 142.51 102.806C140.677 102.571 138.816 102.75 137.061 103.328C135.306 103.907 133.703 104.871 132.368 106.149L132.365 106.153L127.641 114.926C127.305 115.549 127.097 116.234 127.029 116.939C126.961 117.645 127.035 118.357 127.247 119.033Z" fill="#2F2E41"/>
<path d="M136.596 115.084C137.221 115.084 137.728 114.214 137.728 113.14C137.728 112.067 137.221 111.197 136.596 111.197C135.971 111.197 135.464 112.067 135.464 113.14C135.464 114.214 135.971 115.084 136.596 115.084Z" fill="#FFB8B8"/>
<path d="M139.97 109.969L149.695 114.381L151.477 110.442C151.17 109.002 150.527 107.656 149.601 106.512L142.908 103.477L139.97 109.969Z" fill="#2F2E41"/>
<path d="M163.345 196.896C165.732 196.896 167.666 194.959 167.666 192.569C167.666 190.179 165.732 188.241 163.345 188.241C160.958 188.241 159.024 190.179 159.024 192.569C159.024 194.959 160.958 196.896 163.345 196.896Z" fill="#2B303A"/>
<path d="M24.6126 222.621C26.1723 222.621 27.4367 221.355 27.4367 219.793C27.4367 218.231 26.1723 216.965 24.6126 216.965C23.0529 216.965 21.7885 218.231 21.7885 219.793C21.7885 221.355 23.0529 222.621 24.6126 222.621Z" fill="#FF6584"/>
<path d="M38.8809 234.533H38.0166V266.733H38.8809V234.533Z" fill="#3F3D56"/>
<path d="M38.4488 239.086C40.9602 239.086 42.9961 237.048 42.9961 234.533C42.9961 232.018 40.9602 229.979 38.4488 229.979C35.9375 229.979 33.9016 232.018 33.9016 234.533C33.9016 237.048 35.9375 239.086 38.4488 239.086Z" fill="#3F3D56"/>
<path d="M38.4489 254.379C38.4489 254.379 37.7993 240.387 24.4824 242.014L38.4489 254.379Z" fill="#3F3D56"/>
</svg>
