<svg width="270" height="356" viewBox="0 0 270 356" fill="none" xmlns="http://www.w3.org/2000/svg">
<path d="M226.737 8.68079H0V342.923H226.737V8.68079Z" fill="#535461"/>
<path d="M164.946 351.572L0 342.923V8.68111L164.946 0.0325317V351.572Z" fill="#2B303A"/>
<path d="M151.158 193.862C152.287 193.862 153.201 192.951 153.201 191.827C153.201 190.703 152.287 189.792 151.158 189.792C150.03 189.792 149.116 190.703 149.116 191.827C149.116 192.951 150.03 193.862 151.158 193.862Z" fill="#535461"/>
<path d="M151.158 192.131L152.574 194.574L153.99 197.017H151.158H148.327L149.742 194.574L151.158 192.131Z" fill="#535461"/>
<path d="M172.096 351.572L161.993 351.54L162.393 0.0321045H172.096V351.572Z" fill="#2B303A"/>
<g opacity="0.1">
<path opacity="0.1" d="M172.207 351.54H161.993L162.504 0H172.207V351.54Z" fill="white"/>
</g>
<path opacity="0.1" d="M151.158 183.687C154.825 183.687 157.797 180.726 157.797 177.074C157.797 173.421 154.825 170.46 151.158 170.46C147.492 170.46 144.52 173.421 144.52 177.074C144.52 180.726 147.492 183.687 151.158 183.687Z" fill="black"/>
<path d="M151.158 182.67C154.825 182.67 157.797 179.709 157.797 176.056C157.797 172.404 154.825 169.443 151.158 169.443C147.492 169.443 144.52 172.404 144.52 176.056C144.52 179.709 147.492 182.67 151.158 182.67Z" fill="#535461"/>
<path opacity="0.1" d="M26.9734 8.1947V344.496" stroke="black" stroke-width="2" stroke-miterlimit="10"/>
<path opacity="0.1" d="M56.0815 6.15979V345.514" stroke="black" stroke-width="2" stroke-miterlimit="10"/>
<path opacity="0.1" d="M85.1899 4.63361V347.47" stroke="black" stroke-width="2" stroke-miterlimit="10"/>
<path opacity="0.1" d="M114.298 3.10742V349.584" stroke="black" stroke-width="2" stroke-miterlimit="10"/>
<path opacity="0.1" d="M143.406 1.58112V350.013" stroke="black" stroke-width="2" stroke-miterlimit="10"/>
<path d="M236.551 67.3182C247.692 67.3182 256.723 58.8907 256.723 48.4948C256.723 38.099 247.692 29.6714 236.551 29.6714C225.411 29.6714 216.38 38.099 216.38 48.4948C216.38 58.8907 225.411 67.3182 236.551 67.3182Z" fill="#2F2E41"/>
<path d="M177.824 165.759L172.718 172.882C172.718 172.882 148.205 177.969 157.397 185.6C166.59 193.231 179.867 178.478 179.867 178.478L187.016 169.321L177.824 165.759Z" fill="#FFB8B8"/>
<path d="M204.379 84.8698C204.379 84.8698 197.74 84.8698 196.208 94.0271C194.676 103.184 193.144 133.709 193.144 133.709C193.144 133.709 171.696 161.69 175.271 165.251C178.845 168.812 182.931 175.426 185.484 174.408C188.037 173.391 209.996 143.375 209.996 143.375L204.379 84.8698Z" fill="#2B303A"/>
<path opacity="0.1" d="M204.379 84.8698C204.379 84.8698 197.74 84.8698 196.208 94.0271C194.676 103.184 193.144 133.709 193.144 133.709C193.144 133.709 171.696 161.69 175.271 165.251C178.845 168.812 182.931 175.426 185.484 174.408C188.037 173.391 209.996 143.375 209.996 143.375L204.379 84.8698Z" fill="black"/>
<path d="M224.805 58.9241C224.805 58.9241 224.295 78.7649 218.167 79.7824C212.039 80.7999 214.081 87.4135 214.081 87.4135C214.081 87.4135 233.997 99.1145 247.275 87.4135L249.828 81.3086C249.828 81.3086 240.636 74.695 244.721 65.5377L224.805 58.9241Z" fill="#FFB8B8"/>
<path d="M190.591 181.022C190.591 181.022 160.461 236.983 171.696 254.28C182.931 271.577 199.783 307.189 202.336 307.189C204.89 307.189 219.188 300.067 218.167 295.488C217.146 290.91 201.826 256.824 197.74 253.772C193.655 250.719 195.697 242.579 196.208 242.07C196.719 241.562 213.571 214.599 213.571 214.599C213.571 214.599 213.06 257.333 215.103 263.946C217.146 270.56 214.592 317.873 217.146 319.908C219.699 321.943 231.444 325.504 233.487 322.451C235.53 319.399 241.658 273.104 237.572 262.42L245.232 189.162L190.591 181.022Z" fill="#2F2E41"/>
<path d="M218.167 316.855L205.4 340.257C205.4 340.257 187.016 353.485 199.783 355.52C212.55 357.555 220.21 352.467 220.21 352.467L231.445 344.327V320.925L218.167 316.855Z" fill="#2F2E41"/>
<path d="M200.804 303.628L207.443 319.399C207.443 319.399 209.996 326.013 207.443 327.539C204.89 329.065 197.74 338.222 202.336 339.24C203.261 339.42 204.2 339.513 205.143 339.518C208.97 339.582 212.77 338.874 216.316 337.437C219.861 336 223.078 333.863 225.772 331.154L229.912 327.03C229.912 327.03 215.731 294.497 215.928 294.738C216.124 294.979 200.804 303.628 200.804 303.628Z" fill="#2F2E41"/>
<path d="M237.572 71.1338C247.161 71.1338 254.935 63.3896 254.935 53.8367C254.935 44.2837 247.161 36.5395 237.572 36.5395C227.983 36.5395 220.209 44.2837 220.209 53.8367C220.209 63.3896 227.983 71.1338 237.572 71.1338Z" fill="#FFB8B8"/>
<path d="M247.53 78.0018L242.168 83.3436C242.168 83.3436 225.827 89.4485 218.167 83.3436C218.167 83.3436 220.976 77.4931 220.976 78.0018C220.976 78.5106 198.761 81.8174 196.719 90.9747C194.676 100.132 198.251 115.903 198.251 115.903C198.251 115.903 183.952 183.057 189.569 184.583C195.187 186.109 247.786 198.828 247.275 189.162C246.764 179.495 251.36 139.814 251.36 139.814L269.234 105.728C269.234 105.728 266.681 94.5359 260.553 90.9747C254.424 87.4135 247.53 78.0018 247.53 78.0018Z" fill="#2B303A"/>
<path d="M224.806 177.46L218.167 181.53C218.167 181.53 192.634 198.827 205.911 201.88C219.188 204.932 226.849 189.67 226.849 189.67L231.955 183.565L224.806 177.46Z" fill="#FFB8B8"/>
<path opacity="0.1" d="M262.595 102.676L267.191 107.254C267.191 107.254 270.256 149.989 264.127 158.637C257.999 167.286 229.913 190.688 228.381 189.162C226.849 187.635 217.146 180.004 219.188 178.987C221.231 177.969 248.39 149.699 248.39 149.699L246.254 110.307L262.595 102.676Z" fill="black"/>
<path d="M264.638 101.149L269.234 105.728C269.234 105.728 272.298 148.462 266.17 157.111C260.042 165.759 231.955 189.162 230.423 187.635C228.891 186.109 219.188 178.478 221.231 177.461C223.274 176.443 250.433 148.173 250.433 148.173L248.296 108.781L264.638 101.149Z" fill="#2B303A"/>
<path d="M230.392 29.2671C230.392 29.2671 224.49 27.129 216.441 31.6725L220.734 32.7415C220.734 32.7415 214.295 33.276 213.49 41.8284H216.441C216.441 41.8284 214.563 49.3118 216.441 51.4499L217.649 49.1781L221.136 56.1269L221.941 52.6525L223.551 53.1871L224.624 47.5746C224.624 47.5746 227.306 51.5835 229.453 51.8508V48.3763C229.453 48.3763 235.355 55.0579 237.233 54.7906L234.55 51.049L238.306 51.8507L236.696 49.1781L246.354 51.8507L244.208 49.1781L250.915 51.3162L254.134 52.6525C254.134 52.6525 258.695 42.2293 252.256 35.0132C245.818 27.7971 236.428 26.1936 230.392 29.2671Z" fill="#2F2E41"/>
</svg>
